<svg xmlns="http://www.w3.org/2000/svg" viewBox="0 0 512 512">
  <rect width="512" height="512" rx="100" fill="#15803d"/>
  <path d="M256 96c-88.4 0-160 71.6-160 160 0 88.4 71.6 160 160 160s160-71.6 160-160c0-88.4-71.6-160-160-160zm0 288c-70.7 0-128-57.3-128-128s57.3-128 128-128 128 57.3 128 128-57.3 128-128 128z" fill="#ffffff" opacity="0.2"/>
  <path d="M256 160v192M160 256h192" stroke="#ffffff" stroke-width="40" stroke-linecap="round"/>
  <circle cx="256" cy="256" r="40" fill="#ffffff"/>
  <path d="M256 160c-53 0-96 43-96 96h192c0-53-43-96-96-96z" fill="#ffffff"/>
  <text x="50%" y="85%" dominant-baseline="middle" text-anchor="middle" font-family="sans-serif" font-size="60" fill="white" font-weight="bold" letter-spacing="4">KISANBOT</text>
</svg>
